<?xml version="1.0" encoding="UTF-8" standalone="no"?><!DOCTYPE svg PUBLIC "-//W3C//DTD SVG 1.1//EN" "http://www.w3.org/Graphics/SVG/1.1/DTD/svg11.dtd"><svg width="100%" height="100%" viewBox="0 0 96 72" version="1.1" xmlns="http://www.w3.org/2000/svg" xmlns:xlink="http://www.w3.org/1999/xlink" xml:space="preserve" xmlns:serif="http://www.serif.com/" style="fill-rule:evenodd;clip-rule:evenodd;stroke-linecap:round;stroke-linejoin:round;stroke-miterlimit:10;"><path d="M33.504,39.624l-9.984,0" style="fill:none;stroke:#000080;stroke-width:0.96px;"/><path d="M33.504,32.376l-9.984,0" style="fill:none;stroke:#000080;stroke-width:0.96px;"/><path d="M33.504,36.024l-25.392,0" style="fill:none;stroke:#000080;stroke-width:0.96px;"/><path d="M18.096,32.376l-9.984,0" style="fill:none;stroke:#000080;stroke-width:1.87px;"/><path d="M34.416,37.8l9.984,0" style="fill:none;stroke:#000080;stroke-width:0.96px;"/><path d="M44.4,37.8l5.424,-5.424" style="fill:none;stroke:#000080;stroke-width:0.96px;"/><path d="M49.824,32.376l12.672,0" style="fill:none;stroke:#000080;stroke-width:0.96px;"/><path d="M33.504,39.624l12.672,0" style="fill:none;stroke:#000080;stroke-width:0.96px;"/><path d="M46.176,39.624l5.472,-5.424" style="fill:none;stroke:#000080;stroke-width:0.96px;"/><path d="M51.648,34.2l9.936,0" style="fill:none;stroke:#000080;stroke-width:0.96px;"/><path d="M18.096,39.624l-9.984,0" style="fill:none;stroke:#000080;stroke-width:1.87px;"/><path d="M62.496,26.952l2.736,0" style="fill:none;stroke:#000080;stroke-width:0.96px;"/><path d="M65.232,26.952l5.424,-5.472" style="fill:none;stroke:#000080;stroke-width:0.96px;"/><path d="M70.656,21.48l17.232,0" style="fill:none;stroke:#000080;stroke-width:0.96px;"/><path d="M62.496,32.376l9.984,0" style="fill:none;stroke:#000080;stroke-width:0.96px;"/><path d="M77.904,32.376l9.984,0" style="fill:none;stroke:#000080;stroke-width:1.87px;"/><path d="M62.496,39.624l9.984,0" style="fill:none;stroke:#000080;stroke-width:0.96px;"/><path d="M77.904,39.624l9.984,0" style="fill:none;stroke:#000080;stroke-width:1.87px;"/><path d="M62.496,36.024l25.392,0" style="fill:none;stroke:#000080;stroke-width:0.96px;"/><path d="M62.496,28.776l3.648,0" style="fill:none;stroke:#000080;stroke-width:0.96px;"/><path d="M66.144,28.776l5.424,-5.472" style="fill:none;stroke:#000080;stroke-width:0.96px;"/><path d="M71.568,23.304l16.32,0" style="fill:none;stroke:#000080;stroke-width:0.96px;"/><path d="M62.496,30.552l4.56,0" style="fill:none;stroke:#000080;stroke-width:0.96px;"/><path d="M67.056,30.552l5.424,-5.424" style="fill:none;stroke:#000080;stroke-width:0.96px;"/><path d="M72.48,25.128l15.408,0" style="fill:none;stroke:#000080;stroke-width:0.96px;"/><path d="M62.496,45.048l2.736,0" style="fill:none;stroke:#000080;stroke-width:0.96px;"/><path d="M65.232,45.048l5.424,5.472" style="fill:none;stroke:#000080;stroke-width:0.96px;"/><path d="M70.656,50.52l17.232,0" style="fill:none;stroke:#000080;stroke-width:0.96px;"/><path d="M62.496,43.272l3.648,0" style="fill:none;stroke:#000080;stroke-width:0.96px;"/><path d="M66.144,43.272l5.424,5.424" style="fill:none;stroke:#000080;stroke-width:0.96px;"/><path d="M71.568,48.696l16.32,0" style="fill:none;stroke:#000080;stroke-width:0.96px;"/><path d="M62.496,41.448l4.56,0" style="fill:none;stroke:#000080;stroke-width:0.96px;"/><path d="M67.056,41.448l5.424,5.424" style="fill:none;stroke:#000080;stroke-width:0.96px;"/><path d="M72.48,46.872l15.408,0" style="fill:none;stroke:#000080;stroke-width:0.96px;"/><path d="M33.504,26.952l-2.736,0" style="fill:none;stroke:#000080;stroke-width:0.96px;"/><path d="M30.768,26.952l-5.424,-5.472" style="fill:none;stroke:#000080;stroke-width:0.96px;"/><path d="M25.344,21.48l-17.232,0" style="fill:none;stroke:#000080;stroke-width:0.96px;"/><path d="M33.504,28.776l-3.6,0" style="fill:none;stroke:#000080;stroke-width:0.96px;"/><path d="M29.904,28.776l-5.472,-5.472" style="fill:none;stroke:#000080;stroke-width:0.96px;"/><path d="M24.432,23.304l-16.32,0" style="fill:none;stroke:#000080;stroke-width:0.96px;"/><path d="M33.504,30.552l-4.512,0" style="fill:none;stroke:#000080;stroke-width:0.96px;"/><path d="M28.992,30.552l-5.472,-5.424" style="fill:none;stroke:#000080;stroke-width:0.96px;"/><path d="M23.52,25.128l-15.408,0" style="fill:none;stroke:#000080;stroke-width:0.96px;"/><path d="M33.504,43.272l-3.6,0" style="fill:none;stroke:#000080;stroke-width:0.96px;"/><path d="M29.904,43.272l-5.472,5.424" style="fill:none;stroke:#000080;stroke-width:0.96px;"/><path d="M24.432,48.696l-16.32,0" style="fill:none;stroke:#000080;stroke-width:0.96px;"/><path d="M33.504,41.448l-4.512,0" style="fill:none;stroke:#000080;stroke-width:0.96px;"/><path d="M28.992,41.448l-5.472,5.424" style="fill:none;stroke:#000080;stroke-width:0.96px;"/><path d="M23.52,46.872l-15.408,0" style="fill:none;stroke:#000080;stroke-width:0.96px;"/><path d="M25.344,50.52l-17.232,0" style="fill:none;stroke:#000080;stroke-width:0.96px;"/><path d="M33.504,45.048l-2.736,0" style="fill:none;stroke:#000080;stroke-width:0.96px;"/><path d="M25.344,50.52l5.424,-5.472" style="fill:none;stroke:#000080;stroke-width:0.96px;"/><rect x="31.392" y="26.376" width="5.184" height="1.152" style="fill:#800000;stroke:#800000;stroke-width:0.08px;"/><rect x="31.392" y="28.2" width="5.184" height="1.152" style="fill:#800000;stroke:#800000;stroke-width:0.08px;"/><rect x="31.392" y="29.976" width="5.184" height="1.152" style="fill:#800000;stroke:#800000;stroke-width:0.08px;"/><rect x="31.392" y="31.8" width="5.184" height="1.152" style="fill:#800000;stroke:#800000;stroke-width:0.08px;"/><rect x="31.392" y="33.624" width="5.184" height="1.152" style="fill:#800000;stroke:#800000;stroke-width:0.08px;"/><rect x="31.392" y="35.448" width="5.184" height="1.152" style="fill:#800000;stroke:#800000;stroke-width:0.08px;"/><rect x="31.392" y="37.224" width="5.184" height="1.152" style="fill:#800000;stroke:#800000;stroke-width:0.08px;"/><rect x="31.392" y="39.048" width="5.184" height="1.152" style="fill:#800000;stroke:#800000;stroke-width:0.08px;"/><rect x="31.392" y="40.872" width="5.184" height="1.152" style="fill:#800000;stroke:#800000;stroke-width:0.08px;"/><rect x="31.392" y="42.696" width="5.184" height="1.152" style="fill:#800000;stroke:#800000;stroke-width:0.08px;"/><rect x="31.392" y="44.472" width="5.184" height="1.152" style="fill:#800000;stroke:#800000;stroke-width:0.08px;"/><rect x="38.352" y="47.448" width="1.152" height="5.184" style="fill:#800000;stroke:#800000;stroke-width:0.08px;"/><rect x="40.176" y="47.448" width="1.152" height="5.184" style="fill:#800000;stroke:#800000;stroke-width:0.08px;"/><rect x="42" y="47.448" width="1.152" height="5.184" style="fill:#800000;stroke:#800000;stroke-width:0.08px;"/><rect x="43.824" y="47.448" width="1.152" height="5.184" style="fill:#800000;stroke:#800000;stroke-width:0.08px;"/><rect x="45.6" y="47.448" width="1.152" height="5.184" style="fill:#800000;stroke:#800000;stroke-width:0.08px;"/><rect x="47.424" y="47.448" width="1.152" height="5.184" style="fill:#800000;stroke:#800000;stroke-width:0.08px;"/><rect x="49.248" y="47.448" width="1.152" height="5.184" style="fill:#800000;stroke:#800000;stroke-width:0.08px;"/><rect x="51.072" y="47.448" width="1.152" height="5.184" style="fill:#800000;stroke:#800000;stroke-width:0.08px;"/><rect x="52.896" y="47.448" width="1.152" height="5.184" style="fill:#800000;stroke:#800000;stroke-width:0.08px;"/><rect x="54.672" y="47.448" width="1.152" height="5.184" style="fill:#800000;stroke:#800000;stroke-width:0.08px;"/><rect x="56.496" y="47.448" width="1.152" height="5.184" style="fill:#800000;stroke:#800000;stroke-width:0.08px;"/><rect x="59.472" y="44.472" width="5.184" height="1.152" style="fill:#800000;stroke:#800000;stroke-width:0.08px;"/><rect x="59.472" y="42.696" width="5.184" height="1.152" style="fill:#800000;stroke:#800000;stroke-width:0.08px;"/><rect x="59.472" y="40.872" width="5.184" height="1.152" style="fill:#800000;stroke:#800000;stroke-width:0.08px;"/><rect x="59.472" y="39.048" width="5.184" height="1.152" style="fill:#800000;stroke:#800000;stroke-width:0.08px;"/><rect x="59.472" y="37.224" width="5.184" height="1.152" style="fill:#800000;stroke:#800000;stroke-width:0.08px;"/><rect x="59.472" y="35.448" width="5.184" height="1.152" style="fill:#800000;stroke:#800000;stroke-width:0.08px;"/><rect x="59.472" y="33.624" width="5.184" height="1.152" style="fill:#800000;stroke:#800000;stroke-width:0.08px;"/><rect x="59.472" y="31.8" width="5.184" height="1.152" style="fill:#800000;stroke:#800000;stroke-width:0.08px;"/><rect x="59.472" y="29.976" width="5.184" height="1.152" style="fill:#800000;stroke:#800000;stroke-width:0.08px;"/><rect x="59.472" y="28.2" width="5.184" height="1.152" style="fill:#800000;stroke:#800000;stroke-width:0.08px;"/><rect x="59.472" y="26.376" width="5.184" height="1.152" style="fill:#800000;stroke:#800000;stroke-width:0.08px;"/><rect x="56.496" y="19.368" width="1.152" height="5.184" style="fill:#800000;stroke:#800000;stroke-width:0.08px;"/><rect x="54.672" y="19.368" width="1.152" height="5.184" style="fill:#800000;stroke:#800000;stroke-width:0.08px;"/><rect x="52.896" y="19.368" width="1.152" height="5.184" style="fill:#800000;stroke:#800000;stroke-width:0.08px;"/><rect x="51.072" y="19.368" width="1.152" height="5.184" style="fill:#800000;stroke:#800000;stroke-width:0.08px;"/><rect x="49.248" y="19.368" width="1.152" height="5.184" style="fill:#800000;stroke:#800000;stroke-width:0.08px;"/><rect x="47.424" y="19.368" width="1.152" height="5.184" style="fill:#800000;stroke:#800000;stroke-width:0.08px;"/><rect x="45.6" y="19.368" width="1.152" height="5.184" style="fill:#800000;stroke:#800000;stroke-width:0.08px;"/><rect x="43.824" y="19.368" width="1.152" height="5.184" style="fill:#800000;stroke:#800000;stroke-width:0.08px;"/><rect x="42" y="19.368" width="1.152" height="5.184" style="fill:#800000;stroke:#800000;stroke-width:0.08px;"/><rect x="40.176" y="19.368" width="1.152" height="5.184" style="fill:#800000;stroke:#800000;stroke-width:0.08px;"/><rect x="38.352" y="19.368" width="1.152" height="5.184" style="fill:#800000;stroke:#800000;stroke-width:0.08px;"/><rect x="71.568" y="37.8" width="2.88" height="3.648" style="fill:#800000;stroke:#800000;stroke-width:0.08px;"/><rect x="75.984" y="37.8" width="2.88" height="3.648" style="fill:#800000;stroke:#800000;stroke-width:0.08px;"/><rect x="17.184" y="30.552" width="2.88" height="3.648" style="fill:#800000;stroke:#800000;stroke-width:0.08px;"/><rect x="21.6" y="30.552" width="2.88" height="3.648" style="fill:#800000;stroke:#800000;stroke-width:0.08px;"/><rect x="71.568" y="30.552" width="2.88" height="3.648" style="fill:#800000;stroke:#800000;stroke-width:0.08px;"/><rect x="75.984" y="30.552" width="2.88" height="3.648" style="fill:#800000;stroke:#800000;stroke-width:0.08px;"/><rect x="17.184" y="37.8" width="2.88" height="3.648" style="fill:#800000;stroke:#800000;stroke-width:0.08px;"/><rect x="21.6" y="37.8" width="2.88" height="3.648" style="fill:#800000;stroke:#800000;stroke-width:0.08px;"/><path d="M37.152,26.04l0.912,-0.912" style="fill:none;stroke:#808080;stroke-width:0.48px;"/><path d="M38.064,25.128l19.92,0" style="fill:none;stroke:#808080;stroke-width:0.48px;"/><path d="M57.984,25.128l0.912,0.912" style="fill:none;stroke:#808080;stroke-width:0.48px;"/><path d="M58.896,26.04l0,19.92" style="fill:none;stroke:#808080;stroke-width:0.48px;"/><path d="M58.896,45.96l-0.912,0.912" style="fill:none;stroke:#808080;stroke-width:0.48px;"/><path d="M57.984,46.872l-19.92,0" style="fill:none;stroke:#808080;stroke-width:0.48px;"/><path d="M38.064,46.872l-0.912,-0.912" style="fill:none;stroke:#808080;stroke-width:0.48px;"/><path d="M37.152,45.96l0,-19.92" style="fill:none;stroke:#808080;stroke-width:0.48px;"/><path d="M38.016,26.952l0.144,-0.48l0.336,-0.336l0.432,-0.144l0.48,0.144l0.336,0.336l0.144,0.48l-0.144,0.432l-0.336,0.336l-0.48,0.144l-0.432,-0.144l-0.336,-0.336l-0.144,-0.432l0.576,0l0.048,-0.192l0.144,-0.144l0.144,-0.048l0.192,0.048l0.144,0.144l0.048,0.192l-0.048,0.144l-0.144,0.144l-0.192,0.048l-0.144,-0.048l-0.144,-0.144l-0.048,-0.144l-0.576,0Z" style="fill:#808080;stroke:#808080;stroke-width:0.08px;"/><path d="M71.76,37.32l-0.72,0" style="fill:none;stroke:#808080;stroke-width:0.38px;"/><path d="M71.04,37.32l0,4.608" style="fill:none;stroke:#808080;stroke-width:0.38px;"/><path d="M71.04,41.928l0.72,0" style="fill:none;stroke:#808080;stroke-width:0.38px;"/><path d="M78.672,37.32l0.72,0" style="fill:none;stroke:#808080;stroke-width:0.38px;"/><path d="M79.392,37.32l0,4.608" style="fill:none;stroke:#808080;stroke-width:0.38px;"/><path d="M79.392,41.928l-0.72,0" style="fill:none;stroke:#808080;stroke-width:0.38px;"/><path d="M17.376,30.072l-0.72,0" style="fill:none;stroke:#808080;stroke-width:0.38px;"/><path d="M16.656,30.072l0,4.608" style="fill:none;stroke:#808080;stroke-width:0.38px;"/><path d="M16.656,34.68l0.72,0" style="fill:none;stroke:#808080;stroke-width:0.38px;"/><path d="M24.288,30.072l0.72,0" style="fill:none;stroke:#808080;stroke-width:0.38px;"/><path d="M25.008,30.072l0,4.608" style="fill:none;stroke:#808080;stroke-width:0.38px;"/><path d="M25.008,34.68l-0.72,0" style="fill:none;stroke:#808080;stroke-width:0.38px;"/><path d="M71.76,30.072l-0.72,0" style="fill:none;stroke:#808080;stroke-width:0.38px;"/><path d="M71.04,30.072l0,4.608" style="fill:none;stroke:#808080;stroke-width:0.38px;"/><path d="M71.04,34.68l0.72,0" style="fill:none;stroke:#808080;stroke-width:0.38px;"/><path d="M78.672,30.072l0.72,0" style="fill:none;stroke:#808080;stroke-width:0.38px;"/><path d="M79.392,30.072l0,4.608" style="fill:none;stroke:#808080;stroke-width:0.38px;"/><path d="M79.392,34.68l-0.72,0" style="fill:none;stroke:#808080;stroke-width:0.38px;"/><path d="M17.376,37.32l-0.72,0" style="fill:none;stroke:#808080;stroke-width:0.38px;"/><path d="M16.656,37.32l0,4.608" style="fill:none;stroke:#808080;stroke-width:0.38px;"/><path d="M16.656,41.928l0.72,0" style="fill:none;stroke:#808080;stroke-width:0.38px;"/><path d="M24.288,37.32l0.72,0" style="fill:none;stroke:#808080;stroke-width:0.38px;"/><path d="M25.008,37.32l0,4.608" style="fill:none;stroke:#808080;stroke-width:0.38px;"/><path d="M25.008,41.928l-0.72,0" style="fill:none;stroke:#808080;stroke-width:0.38px;"/><path d="M46.08,42.264l0,1.632" style="fill:none;stroke:#808080;stroke-width:0.38px;"/><path d="M46.08,43.896l0.288,0.336" style="fill:none;stroke:#808080;stroke-width:0.38px;"/><path d="M46.368,44.232l0.672,0" style="fill:none;stroke:#808080;stroke-width:0.38px;"/><path d="M47.04,44.232l0.336,-0.336" style="fill:none;stroke:#808080;stroke-width:0.38px;"/><path d="M47.376,43.896l0,-1.632" style="fill:none;stroke:#808080;stroke-width:0.38px;"/><path d="M48.192,42.936l0.624,-0.672" style="fill:none;stroke:#808080;stroke-width:0.38px;"/><path d="M48.816,42.264l0,1.968" style="fill:none;stroke:#808080;stroke-width:0.38px;"/><path d="M48.192,44.232l1.296,0" style="fill:none;stroke:#808080;stroke-width:0.38px;"/><path d="M73.248,44.232l0,-1.968" style="fill:none;stroke:#808080;stroke-width:0.38px;"/><path d="M73.248,42.264l1.008,0" style="fill:none;stroke:#808080;stroke-width:0.38px;"/><path d="M74.256,42.264l0.288,0.336" style="fill:none;stroke:#808080;stroke-width:0.38px;"/><path d="M74.544,42.6l0,0.672" style="fill:none;stroke:#808080;stroke-width:0.38px;"/><path d="M74.544,43.272l-0.288,0.288" style="fill:none;stroke:#808080;stroke-width:0.38px;"/><path d="M74.256,43.56l-1.008,0" style="fill:none;stroke:#808080;stroke-width:0.38px;"/><path d="M73.92,43.56l0.624,0.672" style="fill:none;stroke:#808080;stroke-width:0.38px;"/><path d="M75.36,42.6l0.336,-0.336" style="fill:none;stroke:#808080;stroke-width:0.38px;"/><path d="M75.696,42.264l0.672,0" style="fill:none;stroke:#808080;stroke-width:0.38px;"/><path d="M76.368,42.264l0.336,0.336" style="fill:none;stroke:#808080;stroke-width:0.38px;"/><path d="M76.704,42.6l0,0.336" style="fill:none;stroke:#808080;stroke-width:0.38px;"/><path d="M76.704,42.936l-0.336,0.336" style="fill:none;stroke:#808080;stroke-width:0.38px;"/><path d="M76.368,43.272l-0.336,0" style="fill:none;stroke:#808080;stroke-width:0.38px;"/><path d="M76.368,43.272l0.336,0.288" style="fill:none;stroke:#808080;stroke-width:0.38px;"/><path d="M76.704,43.56l0,0.336" style="fill:none;stroke:#808080;stroke-width:0.38px;"/><path d="M76.704,43.896l-0.336,0.336" style="fill:none;stroke:#808080;stroke-width:0.38px;"/><path d="M76.368,44.232l-0.672,0" style="fill:none;stroke:#808080;stroke-width:0.38px;"/><path d="M75.696,44.232l-0.336,-0.336" style="fill:none;stroke:#808080;stroke-width:0.38px;"/><path d="M18.864,29.736l0,-1.968" style="fill:none;stroke:#808080;stroke-width:0.38px;"/><path d="M18.864,27.768l1.008,0" style="fill:none;stroke:#808080;stroke-width:0.38px;"/><path d="M19.872,27.768l0.288,0.336" style="fill:none;stroke:#808080;stroke-width:0.38px;"/><path d="M20.16,28.104l0,0.624" style="fill:none;stroke:#808080;stroke-width:0.38px;"/><path d="M20.16,28.728l-0.288,0.336" style="fill:none;stroke:#808080;stroke-width:0.38px;"/><path d="M19.872,29.064l-1.008,0" style="fill:none;stroke:#808080;stroke-width:0.38px;"/><path d="M19.536,29.064l0.624,0.672" style="fill:none;stroke:#808080;stroke-width:0.38px;"/><path d="M20.976,28.44l0.672,-0.672" style="fill:none;stroke:#808080;stroke-width:0.38px;"/><path d="M21.648,27.768l0,1.968" style="fill:none;stroke:#808080;stroke-width:0.38px;"/><path d="M20.976,29.736l1.344,0" style="fill:none;stroke:#808080;stroke-width:0.38px;"/><path d="M73.248,29.736l0,-1.968" style="fill:none;stroke:#808080;stroke-width:0.38px;"/><path d="M73.248,27.768l1.008,0" style="fill:none;stroke:#808080;stroke-width:0.38px;"/><path d="M74.256,27.768l0.288,0.336" style="fill:none;stroke:#808080;stroke-width:0.38px;"/><path d="M74.544,28.104l0,0.624" style="fill:none;stroke:#808080;stroke-width:0.38px;"/><path d="M74.544,28.728l-0.288,0.336" style="fill:none;stroke:#808080;stroke-width:0.38px;"/><path d="M74.256,29.064l-1.008,0" style="fill:none;stroke:#808080;stroke-width:0.38px;"/><path d="M73.92,29.064l0.624,0.672" style="fill:none;stroke:#808080;stroke-width:0.38px;"/><path d="M76.368,29.736l0,-1.968" style="fill:none;stroke:#808080;stroke-width:0.38px;"/><path d="M76.368,27.768l-1.008,0.96" style="fill:none;stroke:#808080;stroke-width:0.38px;"/><path d="M75.36,28.728l1.344,0" style="fill:none;stroke:#808080;stroke-width:0.38px;"/><path d="M18.864,44.232l0,-1.968" style="fill:none;stroke:#808080;stroke-width:0.38px;"/><path d="M18.864,42.264l1.008,0" style="fill:none;stroke:#808080;stroke-width:0.38px;"/><path d="M19.872,42.264l0.288,0.336" style="fill:none;stroke:#808080;stroke-width:0.38px;"/><path d="M20.16,42.6l0,0.672" style="fill:none;stroke:#808080;stroke-width:0.38px;"/><path d="M20.16,43.272l-0.288,0.288" style="fill:none;stroke:#808080;stroke-width:0.38px;"/><path d="M19.872,43.56l-1.008,0" style="fill:none;stroke:#808080;stroke-width:0.38px;"/><path d="M19.536,43.56l0.624,0.672" style="fill:none;stroke:#808080;stroke-width:0.38px;"/><path d="M22.32,44.232l-1.344,0" style="fill:none;stroke:#808080;stroke-width:0.38px;"/><path d="M20.976,44.232l1.344,-1.296" style="fill:none;stroke:#808080;stroke-width:0.38px;"/><path d="M22.32,42.936l0,-0.336" style="fill:none;stroke:#808080;stroke-width:0.38px;"/><path d="M22.32,42.6l-0.336,-0.336" style="fill:none;stroke:#808080;stroke-width:0.38px;"/><path d="M21.984,42.264l-0.672,0" style="fill:none;stroke:#808080;stroke-width:0.38px;"/><path d="M21.312,42.264l-0.336,0.336" style="fill:none;stroke:#808080;stroke-width:0.38px;"/><g id="Trim"><path d="M45.696,36.024l4.608,0" style="fill:none;stroke:#000;stroke-width:0.08px;"/><path d="M48,38.328l0,-4.608" style="fill:none;stroke:#000;stroke-width:0.08px;"/><path d="M74.4,39.624l1.584,0" style="fill:none;stroke:#000;stroke-width:0.08px;"/><path d="M75.216,40.44l0,-1.632" style="fill:none;stroke:#000;stroke-width:0.08px;"/><path d="M19.728,32.376l2.208,0" style="fill:none;stroke:#000;stroke-width:0.08px;"/><path d="M20.832,33.48l0,-2.208" style="fill:none;stroke:#000;stroke-width:0.08px;"/><path d="M74.112,32.376l2.208,0" style="fill:none;stroke:#000;stroke-width:0.08px;"/><path d="M75.216,33.48l0,-2.208" style="fill:none;stroke:#000;stroke-width:0.08px;"/><path d="M20.016,39.624l1.584,0" style="fill:none;stroke:#000;stroke-width:0.08px;"/><path d="M20.832,40.44l0,-1.632" style="fill:none;stroke:#000;stroke-width:0.08px;"/></g></svg>