<?xml version="1.0" encoding="UTF-8" standalone="no"?><!DOCTYPE svg PUBLIC "-//W3C//DTD SVG 1.1//EN" "http://www.w3.org/Graphics/SVG/1.1/DTD/svg11.dtd"><svg width="100%" height="100%" viewBox="0 0 192 144" version="1.1" xmlns="http://www.w3.org/2000/svg" xmlns:xlink="http://www.w3.org/1999/xlink" xml:space="preserve" xmlns:serif="http://www.serif.com/" style="fill-rule:evenodd;clip-rule:evenodd;stroke-miterlimit:10;"><path d="M55.018,45.326l0,36.544" style="fill:none;stroke:#cccce5;stroke-width:0.29px;"/><path d="M46.354,62.412l0,36.545" style="fill:none;stroke:#cccce5;stroke-width:0.29px;"/><path d="M20.023,47.068l0,36.545" style="fill:none;stroke:#cccce5;stroke-width:0.29px;"/><path d="M19.878,83.322l0.29,0l26.331,15.344l0,0.291l-0.29,0l-26.331,-15.344" style="fill:#cccce5;fill-rule:nonzero;"/><path d="M19.878,83.322l0.29,0l0,0.291l-2.614,0.677l-0.29,0l0,-0.29" style="fill:#cccce5;fill-rule:nonzero;"/><path d="M54.873,81.58l0.291,0l0,0.29l-2.662,0.678l-0.291,0l0,-0.291" style="fill:#cccce5;fill-rule:nonzero;"/><path d="M54.873,81.58l0.291,0l19.264,11.229l0,0.291l-0.29,0l-19.265,-11.23" style="fill:#cccce5;fill-rule:nonzero;"/><path d="M69.782,92.471l0.29,0l0,0.29l-23.573,6.196l-0.29,0l0,-0.291" style="fill:#cccce5;fill-rule:nonzero;"/><path d="M47.952,99.683l0.29,0l8.809,5.13l0,0.291l-0.29,0l-8.809,-5.131" style="fill:#cccce5;fill-rule:nonzero;"/><path d="M91.66,94.165l0.29,0l0,0.29l-26.186,6.873l-0.29,0l0,-0.29" style="fill:#cccce5;fill-rule:nonzero;"/><path d="M103.035,98.618l0.29,0l0,0.29l-2.614,0.678l-0.29,0l0,-0.291" style="fill:#cccce5;fill-rule:nonzero;"/><path d="M103.035,98.618l0.29,0l8.761,5.082l0,0.291l-0.29,0l-8.761,-5.083" style="fill:#cccce5;fill-rule:nonzero;"/><path d="M103.18,62.364l0,36.544" style="fill:none;stroke:#cccce5;stroke-width:0.29px;"/><path d="M161.506,90.68l0.29,0l0,0.29l-49.71,13.021l-0.29,0l0,-0.291" style="fill:#cccce5;fill-rule:nonzero;"/><path d="M111.941,67.446l0,36.545" style="fill:none;stroke:#cccce5;stroke-width:0.29px;"/><path d="M73.993,70.592l0.29,0l26.331,15.393l0,0.29l-0.29,0l-26.331,-15.392" style="fill:#cccce5;fill-rule:nonzero;"/><path d="M87.255,89.421l0.291,0l7.018,4.066l0,0.29l-0.29,0l-7.019,-4.065" style="fill:#cccce5;fill-rule:nonzero;"/><path d="M117.846,87.291l0.29,0l0,0.291l-23.572,6.195l-0.29,0l0,-0.29" style="fill:#cccce5;fill-rule:nonzero;"/><path d="M94.419,57.233l0,36.544" style="fill:none;stroke:#cccce5;stroke-width:0.29px;"/><path d="M107.197,67.833l0.291,0l0,0.291l-15.683,4.114l-0.29,0l0,-0.29" style="fill:#cccce5;fill-rule:nonzero;"/><path d="M107.197,67.833l0.291,0l36.883,21.491l0,0.291l-0.29,0l-36.884,-21.491" style="fill:#cccce5;fill-rule:nonzero;"/><path d="M107.343,31.579l0,36.545" style="fill:none;stroke:#cccce5;stroke-width:0.29px;"/><path d="M139.676,88.986l0.29,0l0,0.29l-26.186,6.873l-0.29,0l0,-0.29" style="fill:#cccce5;fill-rule:nonzero;"/><path d="M95.871,72.286l0.29,0l26.332,15.344l0,0.291l-0.291,0l-26.331,-15.344" style="fill:#cccce5;fill-rule:nonzero;"/><path d="M67.942,78.143l0.291,0l0,0.291l-2.614,0.677l-0.291,0l0,-0.29" style="fill:#cccce5;fill-rule:nonzero;"/><path d="M67.942,78.143l0.291,0l17.57,10.213l0,0.291l-0.29,0l-17.571,-10.213" style="fill:#cccce5;fill-rule:nonzero;"/><path d="M68.087,41.889l0,36.545" style="fill:none;stroke:#cccce5;stroke-width:0.29px;"/><path d="M95.968,85.646l0.29,0l0,0.29l-10.455,2.711l-0.29,0l0,-0.291" style="fill:#cccce5;fill-rule:nonzero;"/><path d="M85.658,52.102l0,36.545" style="fill:none;stroke:#cccce5;stroke-width:0.29px;"/><path d="M34.737,80.902l0.291,0l17.57,10.262l0,0.29l-0.29,0l-17.571,-10.261" style="fill:#cccce5;fill-rule:nonzero;"/><path d="M111.505,59.266l0.291,0l0,0.29l-81.124,21.298l-0.291,0l0,-0.291" style="fill:#cccce5;fill-rule:nonzero;"/><path d="M111.505,59.266l0.291,0l63.214,36.883l0,0.291l-0.29,0l-63.215,-36.884" style="fill:#cccce5;fill-rule:nonzero;"/><path d="M111.65,23.012l0,36.544" style="fill:none;stroke:#cccce5;stroke-width:0.29px;"/><path d="M159.86,98.569l0.291,0l1.742,1.017l0,0.29l-0.29,0l-1.743,-1.016" style="fill:#cccce5;fill-rule:nonzero;"/><path d="M159.86,98.569l0.291,0l0,0.291l-41.869,10.987l-0.291,0l0,-0.29" style="fill:#cccce5;fill-rule:nonzero;"/><path d="M160.005,62.315l0,36.545" style="fill:none;stroke:#cccce5;stroke-width:0.29px;"/><path d="M90.063,65.8l0,36.545" style="fill:none;stroke:#cccce5;stroke-width:0.29px;"/><path d="M81.447,82.935l0,36.545" style="fill:none;stroke:#cccce5;stroke-width:0.29px;"/><path d="M63.925,72.674l0,36.544" style="fill:none;stroke:#cccce5;stroke-width:0.29px;"/><path d="M89.917,102.054l0.291,0l19.361,11.278l0,0.291l-0.29,0l-19.362,-11.278" style="fill:#cccce5;fill-rule:nonzero;"/><path d="M104.874,112.994l0.29,0l0,0.29l-23.572,6.196l-0.29,0l0,-0.291" style="fill:#cccce5;fill-rule:nonzero;"/><path d="M63.779,108.928l0.291,0l17.522,10.261l0,0.291l-0.29,0l-17.523,-10.262" style="fill:#cccce5;fill-rule:nonzero;"/><path d="M63.779,108.928l0.291,0l0,0.29l-2.614,0.678l-0.29,0l0,-0.291" style="fill:#cccce5;fill-rule:nonzero;"/><path d="M78.639,106.508l0.291,0l8.761,5.13l0,0.291l-0.291,0l-8.761,-5.131" style="fill:#cccce5;fill-rule:nonzero;"/><path d="M89.917,102.054l0.291,0l0,0.291l-15.683,4.114l-0.29,0l0,-0.29" style="fill:#cccce5;fill-rule:nonzero;"/><path d="M56.906,68.559l0,36.545" style="fill:none;stroke:#000080;stroke-width:0.29px;"/><path d="M56.761,104.813l0.29,0l0,0.291l-2.613,0.678l-0.291,0l0,-0.291" style="fill:#000080;fill-rule:nonzero;"/><path d="M54.873,45.326l0.291,0l0,0.29l-2.662,0.678l-0.291,0l0,-0.291" style="fill:#000080;fill-rule:nonzero;"/><path d="M54.873,45.326l0.291,0l19.264,11.229l0,0.291l-0.29,0l-19.265,-11.23" style="fill:#000080;fill-rule:nonzero;"/><path d="M69.782,56.216l0.29,0l0,0.291l-23.573,6.196l-0.29,0l0,-0.291" style="fill:#000080;fill-rule:nonzero;"/><path d="M19.878,47.068l0.29,0l0,0.291l-2.614,0.677l-0.29,0l0,-0.29" style="fill:#000080;fill-rule:nonzero;"/><path d="M19.878,47.068l0.29,0l26.331,15.344l0,0.291l-0.29,0l-26.331,-15.344" style="fill:#000080;fill-rule:nonzero;"/><path d="M56.761,68.559l0.29,0l0,0.291l-2.613,0.677l-0.291,0l0,-0.29" style="fill:#000080;fill-rule:nonzero;"/><path d="M47.952,63.429l0.29,0l8.809,5.13l0,0.291l-0.29,0l-8.809,-5.131" style="fill:#000080;fill-rule:nonzero;"/><path d="M52.211,82.257l0.291,0l17.57,10.214l0,0.29l-0.29,0l-17.571,-10.213" style="fill:#cccce5;fill-rule:nonzero;"/><path d="M52.356,54.861l0,27.687" style="fill:none;stroke:#cccce5;stroke-width:0.29px;"/><path d="M52.356,46.003l0,9.149" style="fill:none;stroke:#000080;stroke-width:0.29px;"/><path d="M69.927,56.216l0,36.545" style="fill:none;stroke:#cccce5;stroke-width:0.29px;"/><path d="M52.211,46.003l0.291,0l17.57,10.213l0,0.291l-0.29,0l-17.571,-10.213" style="fill:#000080;fill-rule:nonzero;"/><path d="M74.138,92.809l0.29,0l0,0.291l-12.972,3.436l-0.29,0l0,-0.29" style="fill:#cccce5;fill-rule:nonzero;"/><path d="M61.166,96.246l0.29,0l0,0.29l-4.405,1.162l-0.29,0l0,-0.29" style="fill:#000080;fill-rule:nonzero;"/><path d="M56.761,97.408l0.29,0l0,0.29l-8.809,2.275l-0.29,0l0,-0.29" style="fill:#cccce5;fill-rule:nonzero;"/><path d="M48.097,63.429l0,36.544" style="fill:none;stroke:#cccce5;stroke-width:0.29px;"/><path d="M74.283,56.555l0,6.244" style="fill:none;stroke:#000080;stroke-width:0.29px;"/><path d="M74.283,62.509l0,30.591" style="fill:none;stroke:#cccce5;stroke-width:0.29px;"/><path d="M74.138,56.555l0.29,0l0,0.291l-26.186,6.873l-0.29,0l0,-0.29" style="fill:#000080;fill-rule:nonzero;"/><path d="M17.264,84l0.29,0l36.884,21.491l0,0.291l-0.291,0l-36.883,-21.492" style="fill:#000080;fill-rule:nonzero;"/><path d="M17.409,47.746l0,36.544" style="fill:none;stroke:#000080;stroke-width:0.29px;"/><path d="M54.292,69.237l0,36.545" style="fill:none;stroke:#000080;stroke-width:0.29px;"/><path d="M17.264,47.746l0.29,0l36.884,21.491l0,0.29l-0.291,0l-36.883,-21.491" style="fill:#000080;fill-rule:nonzero;"/><path d="M107.197,31.579l0.291,0l0,0.291l-15.683,4.114l-0.29,0l0,-0.291" style="fill:#000080;fill-rule:nonzero;"/><path d="M139.676,52.731l0.29,0l0,0.291l-26.186,6.873l-0.29,0l0,-0.29" style="fill:#000080;fill-rule:nonzero;"/><path d="M107.197,31.579l0.291,0l36.883,21.491l0,0.291l-0.29,0l-36.884,-21.491" style="fill:#000080;fill-rule:nonzero;"/><path d="M95.871,36.032l0.29,0l26.332,15.344l0,0.291l-0.291,0l-26.331,-15.344" style="fill:#000080;fill-rule:nonzero;"/><path d="M117.846,51.037l0.29,0l0,0.291l-23.572,6.195l-0.29,0l0,-0.29" style="fill:#000080;fill-rule:nonzero;"/><path d="M67.942,41.889l0.291,0l0,0.29l-2.614,0.678l-0.291,0l0,-0.29" style="fill:#000080;fill-rule:nonzero;"/><path d="M67.942,41.889l0.291,0l17.57,10.213l0,0.291l-0.29,0l-17.571,-10.214" style="fill:#000080;fill-rule:nonzero;"/><path d="M34.737,44.648l0.291,0l17.57,10.262l0,0.29l-0.29,0l-17.571,-10.262" style="fill:#000080;fill-rule:nonzero;"/><path d="M91.66,57.911l0.29,0l0,0.29l-26.186,6.873l-0.29,0l0,-0.29" style="fill:#000080;fill-rule:nonzero;"/><path d="M87.255,53.167l0.291,0l7.018,4.066l0,0.29l-0.29,0l-7.019,-4.066" style="fill:#000080;fill-rule:nonzero;"/><path d="M95.968,49.392l0.29,0l0,0.29l-10.455,2.711l-0.29,0l0,-0.291" style="fill:#000080;fill-rule:nonzero;"/><path d="M73.993,34.338l0.29,0l26.331,15.392l0,0.291l-0.29,0l-26.331,-15.392" style="fill:#000080;fill-rule:nonzero;"/><path d="M111.505,23.012l0.291,0l0,0.29l-81.124,21.298l-0.291,0l0,-0.291" style="fill:#000080;fill-rule:nonzero;"/><path d="M111.505,23.012l0.291,0l63.214,36.883l0,0.291l-0.29,0l-63.215,-36.884" style="fill:#000080;fill-rule:nonzero;"/><path d="M103.035,62.364l0.29,0l0,0.29l-2.614,0.678l-0.29,0l0,-0.291" style="fill:#000080;fill-rule:nonzero;"/><path d="M103.035,62.364l0.29,0l8.761,5.082l0,0.29l-0.29,0l-8.761,-5.082" style="fill:#000080;fill-rule:nonzero;"/><path d="M161.506,54.426l0.29,0l0,0.29l-49.71,13.02l-0.29,0l0,-0.29" style="fill:#000080;fill-rule:nonzero;"/><path d="M174.72,59.895l0.29,0l0,0.291l-2.613,0.677l-0.291,0l0,-0.29" style="fill:#000080;fill-rule:nonzero;"/><path d="M174.865,59.895l0,36.545" style="fill:none;stroke:#000080;stroke-width:0.29px;"/><path d="M174.72,96.149l0.29,0l0,0.291l-2.613,0.677l-0.291,0l0,-0.29" style="fill:#000080;fill-rule:nonzero;"/><path d="M65.474,64.784l0.29,0l1.743,1.065l0,0.29l-0.291,0l-1.742,-1.065" style="fill:#000080;fill-rule:nonzero;"/><path d="M65.619,73.642l0,27.686" style="fill:none;stroke:#cccce5;stroke-width:0.29px;"/><path d="M65.619,64.784l0,9.148" style="fill:none;stroke:#000080;stroke-width:0.29px;"/><path d="M65.474,101.038l0.29,0l1.743,1.065l0,0.29l-0.291,0l-1.742,-1.065" style="fill:#cccce5;fill-rule:nonzero;"/><path d="M163.297,91.696l0.29,0l8.81,5.131l0,0.29l-0.291,0l-8.809,-5.13" style="fill:#000080;fill-rule:nonzero;"/><path d="M172.251,60.573l0,36.544" style="fill:none;stroke:#000080;stroke-width:0.29px;"/><path d="M163.297,55.442l0.29,0l8.81,5.131l0,0.29l-0.291,0l-8.809,-5.131" style="fill:#000080;fill-rule:nonzero;"/><path d="M163.297,91.696l0.29,0l0,0.291l-1.694,0.484l-0.29,0l0,-0.291" style="fill:#000080;fill-rule:nonzero;"/><path d="M161.603,92.18l0.29,0l0,0.291l-43.611,11.423l-0.291,0l0,-0.291" style="fill:#cccce5;fill-rule:nonzero;"/><path d="M117.991,103.603l0.291,0l0,0.291l-7.019,1.839l-0.29,0l0,-0.29" style="fill:#000080;fill-rule:nonzero;"/><path d="M163.442,55.442l0,36.545" style="fill:none;stroke:#000080;stroke-width:0.29px;"/><path d="M163.297,55.442l0.29,0l0,0.29l-52.324,13.747l-0.29,0l0,-0.29" style="fill:#000080;fill-rule:nonzero;"/><path d="M109.279,104.475l0.29,0l1.694,0.968l0,0.29l-0.29,0l-1.694,-0.968" style="fill:#000080;fill-rule:nonzero;"/><path d="M100.421,99.295l0.29,0l8.858,5.18l0,0.29l-0.29,0l-8.858,-5.179" style="fill:#cccce5;fill-rule:nonzero;"/><path d="M100.566,71.899l0,27.687" style="fill:none;stroke:#cccce5;stroke-width:0.29px;"/><path d="M100.566,63.041l0,9.149" style="fill:none;stroke:#000080;stroke-width:0.29px;"/><path d="M111.118,69.189l0,36.544" style="fill:none;stroke:#000080;stroke-width:0.29px;"/><path d="M100.421,63.041l0.29,0l10.552,6.148l0,0.29l-0.29,0l-10.552,-6.147" style="fill:#000080;fill-rule:nonzero;"/><path d="M110.682,60.96l0.291,0l50.823,29.72l0,0.29l-0.29,0l-50.824,-29.72" style="fill:#cccce5;fill-rule:nonzero;"/><path d="M161.651,54.426l0,36.544" style="fill:none;stroke:#cccce5;stroke-width:0.29px;"/><path d="M110.682,24.706l0.291,0l50.823,29.72l0,0.29l-0.29,0l-50.824,-29.72" style="fill:#000080;fill-rule:nonzero;"/><path d="M110.682,60.96l0.291,0l0,0.29l-36.69,9.633l-0.29,0l0,-0.291" style="fill:#cccce5;fill-rule:nonzero;"/><path d="M74.138,34.338l0,36.545" style="fill:none;stroke:#cccce5;stroke-width:0.29px;"/><path d="M110.828,24.706l0,9.148" style="fill:none;stroke:#000080;stroke-width:0.29px;"/><path d="M110.828,33.564l0,27.686" style="fill:none;stroke:#cccce5;stroke-width:0.29px;"/><path d="M110.682,24.706l0.291,0l0,0.29l-36.69,9.633l-0.29,0l0,-0.291" style="fill:#000080;fill-rule:nonzero;"/><path d="M100.324,85.985l0.29,0l0,0.29l-13.068,3.437l-0.291,0l0,-0.291" style="fill:#cccce5;fill-rule:nonzero;"/><path d="M87.4,53.167l0,36.545" style="fill:none;stroke:#cccce5;stroke-width:0.29px;"/><path d="M100.469,49.73l0,6.196" style="fill:none;stroke:#000080;stroke-width:0.29px;"/><path d="M100.469,55.636l0,30.639" style="fill:none;stroke:#cccce5;stroke-width:0.29px;"/><path d="M100.324,49.73l0.29,0l0,0.291l-13.068,3.436l-0.291,0l0,-0.29" style="fill:#000080;fill-rule:nonzero;"/><path d="M91.515,71.948l0.29,0l26.331,15.343l0,0.291l-0.29,0l-26.331,-15.344" style="fill:#cccce5;fill-rule:nonzero;"/><path d="M91.66,44.551l0,27.687" style="fill:none;stroke:#cccce5;stroke-width:0.29px;"/><path d="M91.66,35.693l0,9.149" style="fill:none;stroke:#000080;stroke-width:0.29px;"/><path d="M117.991,51.037l0,36.545" style="fill:none;stroke:#cccce5;stroke-width:0.29px;"/><path d="M91.515,35.693l0.29,0l26.331,15.344l0,0.291l-0.29,0l-26.331,-15.344" style="fill:#000080;fill-rule:nonzero;"/><path d="M144.081,89.324l0.29,0l0,0.291l-28.8,7.551l-0.29,0l0,-0.291" style="fill:#cccce5;fill-rule:nonzero;"/><path d="M144.226,53.07l0,6.196" style="fill:none;stroke:#000080;stroke-width:0.29px;"/><path d="M144.226,58.975l0,30.64" style="fill:none;stroke:#cccce5;stroke-width:0.29px;"/><path d="M144.081,53.07l0.29,0l0,0.291l-28.8,7.551l-0.29,0l0,-0.291" style="fill:#000080;fill-rule:nonzero;"/><path d="M113.49,95.859l0.29,0l1.791,1.016l0,0.291l-0.29,0l-1.791,-1.017" style="fill:#cccce5;fill-rule:nonzero;"/><path d="M113.635,67.01l0,29.139" style="fill:none;stroke:#cccce5;stroke-width:0.29px;"/><path d="M113.635,59.605l0,7.696" style="fill:none;stroke:#000080;stroke-width:0.29px;"/><path d="M115.426,60.621l0,6.196" style="fill:none;stroke:#000080;stroke-width:0.29px;"/><path d="M115.426,66.526l0,30.64" style="fill:none;stroke:#cccce5;stroke-width:0.29px;"/><path d="M113.49,59.605l0.29,0l1.791,1.016l0,0.291l-0.29,0l-1.791,-1.017" style="fill:#000080;fill-rule:nonzero;"/><path d="M106.326,69.527l0.29,0l33.35,19.459l0,0.29l-0.29,0l-33.35,-19.458" style="fill:#cccce5;fill-rule:nonzero;"/><path d="M139.821,52.731l0,36.545" style="fill:none;stroke:#cccce5;stroke-width:0.29px;"/><path d="M106.326,33.273l0.29,0l33.35,19.458l0,0.291l-0.29,0l-33.35,-19.458" style="fill:#000080;fill-rule:nonzero;"/><path d="M106.326,69.527l0.29,0l0,0.291l-10.455,2.759l-0.29,0l0,-0.291" style="fill:#cccce5;fill-rule:nonzero;"/><path d="M96.016,36.032l0,36.545" style="fill:none;stroke:#cccce5;stroke-width:0.29px;"/><path d="M106.471,33.273l0,9.149" style="fill:none;stroke:#000080;stroke-width:0.29px;"/><path d="M106.471,42.131l0,27.687" style="fill:none;stroke:#cccce5;stroke-width:0.29px;"/><path d="M106.326,33.273l0.29,0l0,0.291l-10.455,2.759l-0.29,0l0,-0.291" style="fill:#000080;fill-rule:nonzero;"/><path d="M122.202,87.63l0.291,0l0,0.291l-54.986,14.472l-0.291,0l0,-0.29" style="fill:#cccce5;fill-rule:nonzero;"/><path d="M67.361,74.707l0,27.686" style="fill:none;stroke:#cccce5;stroke-width:0.29px;"/><path d="M67.361,65.849l0,9.148" style="fill:none;stroke:#000080;stroke-width:0.29px;"/><path d="M122.348,51.376l0,6.244" style="fill:none;stroke:#000080;stroke-width:0.29px;"/><path d="M122.348,57.33l0,30.591" style="fill:none;stroke:#cccce5;stroke-width:0.29px;"/><path d="M122.202,51.376l0.291,0l0,0.291l-54.986,14.472l-0.291,0l0,-0.29" style="fill:#000080;fill-rule:nonzero;"/><path d="M65.328,78.821l0.291,0l26.331,15.344l0,0.29l-0.29,0l-26.332,-15.344" style="fill:#cccce5;fill-rule:nonzero;"/><path d="M65.474,51.425l0,27.686" style="fill:none;stroke:#cccce5;stroke-width:0.29px;"/><path d="M65.474,42.567l0,9.148" style="fill:none;stroke:#000080;stroke-width:0.29px;"/><path d="M91.805,57.911l0,36.544" style="fill:none;stroke:#cccce5;stroke-width:0.29px;"/><path d="M65.328,42.567l0.291,0l26.331,15.344l0,0.29l-0.29,0l-26.332,-15.344" style="fill:#000080;fill-rule:nonzero;"/><path d="M71.379,71.27l0.29,0l24.589,14.376l0,0.29l-0.29,0l-24.589,-14.376" style="fill:#cccce5;fill-rule:nonzero;"/><path d="M96.113,49.392l0,36.544" style="fill:none;stroke:#cccce5;stroke-width:0.29px;"/><path d="M71.379,35.016l0.29,0l24.589,14.376l0,0.29l-0.29,0l-24.589,-14.376" style="fill:#000080;fill-rule:nonzero;"/><path d="M71.379,71.27l0.29,0l0,0.29l-36.641,9.633l-0.291,0l0,-0.291" style="fill:#cccce5;fill-rule:nonzero;"/><path d="M34.883,44.648l0,36.545" style="fill:none;stroke:#cccce5;stroke-width:0.29px;"/><path d="M71.524,35.016l0,9.148" style="fill:none;stroke:#000080;stroke-width:0.29px;"/><path d="M71.524,43.874l0,27.686" style="fill:none;stroke:#cccce5;stroke-width:0.29px;"/><path d="M71.379,35.016l0.29,0l0,0.29l-36.641,9.632l-0.291,0l0,-0.29" style="fill:#000080;fill-rule:nonzero;"/><path d="M52.308,91.164l0.29,0l0,0.29l-2.613,0.678l-0.291,0l0,-0.291" style="fill:#cccce5;fill-rule:nonzero;"/><path d="M52.453,54.91l0,6.195" style="fill:none;stroke:#000080;stroke-width:0.29px;"/><path d="M52.453,60.815l0,30.639" style="fill:none;stroke:#cccce5;stroke-width:0.29px;"/><path d="M52.308,54.91l0.29,0l0,0.29l-2.613,0.678l-0.291,0l0,-0.291" style="fill:#000080;fill-rule:nonzero;"/><path d="M30.381,80.563l0.291,0l19.313,11.278l0,0.291l-0.291,0l-19.313,-11.278" style="fill:#cccce5;fill-rule:nonzero;"/><path d="M30.526,53.167l0,27.687" style="fill:none;stroke:#cccce5;stroke-width:0.29px;"/><path d="M30.526,44.309l0,9.148" style="fill:none;stroke:#000080;stroke-width:0.29px;"/><path d="M49.839,55.587l0,6.196" style="fill:none;stroke:#000080;stroke-width:0.29px;"/><path d="M49.839,61.492l0,30.64" style="fill:none;stroke:#cccce5;stroke-width:0.29px;"/><path d="M30.381,44.309l0.291,0l19.313,11.278l0,0.291l-0.291,0l-19.313,-11.278" style="fill:#000080;fill-rule:nonzero;"/><path d="M118.136,73.303l0,36.544" style="fill:none;stroke:#000080;stroke-width:0.29px;"/><path d="M117.991,109.557l0.291,0l1.742,1.016l0,0.291l-0.29,0l-1.743,-1.017" style="fill:#000080;fill-rule:nonzero;"/><path d="M161.748,63.332l0,36.544" style="fill:none;stroke:#000080;stroke-width:0.29px;"/><path d="M119.879,74.319l0,36.545" style="fill:none;stroke:#000080;stroke-width:0.29px;"/><path d="M161.603,99.586l0.29,0l0,0.29l-41.869,10.988l-0.29,0l0,-0.291" style="fill:#000080;fill-rule:nonzero;"/><path d="M159.86,62.315l0.291,0l1.742,1.017l0,0.29l-0.29,0l-1.743,-1.016" style="fill:#000080;fill-rule:nonzero;"/><path d="M161.603,63.332l0.29,0l0,0.29l-41.869,10.988l-0.29,0l0,-0.291" style="fill:#000080;fill-rule:nonzero;"/><path d="M159.86,62.315l0.291,0l0,0.291l-41.869,10.987l-0.291,0l0,-0.29" style="fill:#000080;fill-rule:nonzero;"/><path d="M117.991,73.303l0.291,0l1.742,1.016l0,0.291l-0.29,0l-1.743,-1.017" style="fill:#000080;fill-rule:nonzero;"/><path d="M74.235,106.169l0.29,0l10.552,6.147l0,0.29l-0.29,0l-10.552,-6.147" style="fill:#cccce5;fill-rule:nonzero;"/><path d="M74.38,78.772l0,27.687" style="fill:none;stroke:#cccce5;stroke-width:0.29px;"/><path d="M74.38,69.915l0,9.148" style="fill:none;stroke:#000080;stroke-width:0.29px;"/><path d="M87.4,111.638l0.291,0l0,0.291l-2.614,0.677l-0.29,0l0,-0.29" style="fill:#cccce5;fill-rule:nonzero;"/><path d="M84.932,82.015l0,30.591" style="fill:none;stroke:#cccce5;stroke-width:0.29px;"/><path d="M84.932,76.062l0,6.244" style="fill:none;stroke:#000080;stroke-width:0.29px;"/><path d="M87.546,75.384l0,6.244" style="fill:none;stroke:#000080;stroke-width:0.29px;"/><path d="M87.546,81.338l0,30.591" style="fill:none;stroke:#cccce5;stroke-width:0.29px;"/><path d="M89.094,103.749l0.291,0l0,0.29l-10.455,2.759l-0.291,0l0,-0.29" style="fill:#cccce5;fill-rule:nonzero;"/><path d="M78.785,70.253l0,36.545" style="fill:none;stroke:#cccce5;stroke-width:0.29px;"/><path d="M89.094,103.749l0.291,0l15.779,9.245l0,0.29l-0.29,0l-15.78,-9.245" style="fill:#cccce5;fill-rule:nonzero;"/><path d="M89.24,80.902l0,23.137" style="fill:none;stroke:#cccce5;stroke-width:0.29px;"/><path d="M89.24,67.494l0,13.699" style="fill:none;stroke:#000080;stroke-width:0.29px;"/><path d="M105.019,76.739l0,36.545" style="fill:none;stroke:#cccce5;stroke-width:0.29px;"/><path d="M61.311,73.351l0,36.545" style="fill:none;stroke:#000080;stroke-width:0.29px;"/><path d="M61.166,109.605l0.29,0l19.313,11.278l0,0.291l-0.29,0l-19.313,-11.278" style="fill:#000080;fill-rule:nonzero;"/><path d="M89.917,65.8l0.291,0l19.361,11.278l0,0.291l-0.29,0l-19.362,-11.278" style="fill:#000080;fill-rule:nonzero;"/><path d="M89.094,67.494l0.291,0l15.779,9.245l0,0.291l-0.29,0l-15.78,-9.245" style="fill:#000080;fill-rule:nonzero;"/><path d="M89.917,65.8l0.291,0l0,0.291l-15.683,4.114l-0.29,0l0,-0.29" style="fill:#000080;fill-rule:nonzero;"/><path d="M89.094,67.494l0.291,0l0,0.291l-10.455,2.759l-0.291,0l0,-0.291" style="fill:#000080;fill-rule:nonzero;"/><path d="M78.639,70.253l0.291,0l8.761,5.131l0,0.291l-0.291,0l-8.761,-5.131" style="fill:#000080;fill-rule:nonzero;"/><path d="M87.4,75.384l0.291,0l0,0.291l-2.614,0.677l-0.29,0l0,-0.29" style="fill:#000080;fill-rule:nonzero;"/><path d="M74.235,69.915l0.29,0l10.552,6.147l0,0.29l-0.29,0l-10.552,-6.147" style="fill:#000080;fill-rule:nonzero;"/><path d="M63.779,72.674l0.291,0l0,0.29l-2.614,0.678l-0.29,0l0,-0.291" style="fill:#000080;fill-rule:nonzero;"/><path d="M63.779,72.674l0.291,0l17.522,10.261l0,0.291l-0.29,0l-17.523,-10.262" style="fill:#000080;fill-rule:nonzero;"/><path d="M61.166,73.351l0.29,0l19.313,11.278l0,0.291l-0.29,0l-19.313,-11.278" style="fill:#000080;fill-rule:nonzero;"/><path d="M104.874,76.739l0.29,0l0,0.291l-23.572,6.196l-0.29,0l0,-0.291" style="fill:#000080;fill-rule:nonzero;"/><path d="M109.279,113.332l0.29,0l0,0.291l-28.8,7.551l-0.29,0l0,-0.291" style="fill:#000080;fill-rule:nonzero;"/><path d="M80.624,84.629l0,36.545" style="fill:none;stroke:#000080;stroke-width:0.29px;"/><path d="M109.424,77.078l0,36.545" style="fill:none;stroke:#000080;stroke-width:0.29px;"/><path d="M109.279,77.078l0.29,0l0,0.291l-28.8,7.551l-0.29,0l0,-0.291" style="fill:#000080;fill-rule:nonzero;"/></svg>