<?xml version="1.0" encoding="UTF-8" standalone="no"?><!DOCTYPE svg PUBLIC "-//W3C//DTD SVG 1.1//EN" "http://www.w3.org/Graphics/SVG/1.1/DTD/svg11.dtd"><svg width="100%" height="100%" viewBox="0 0 800 600" version="1.1" xmlns="http://www.w3.org/2000/svg" xmlns:xlink="http://www.w3.org/1999/xlink" xml:space="preserve" xmlns:serif="http://www.serif.com/" style="fill-rule:evenodd;clip-rule:evenodd;stroke-linejoin:round;stroke-miterlimit:1.41421;"><g><path d="M389.078,475.429l-91.884,0.629c-4.195,0 -9.65,-1.888 -16.363,-5.664c-28.74,-16.782 -32.201,-44.054 -10.384,-81.814l8.182,-14.475l111.393,0.315l-0.944,101.009Zm-8.181,-91.255l-96.604,-0.629l-7.867,13.846c-17.202,29.998 -13.636,51.92 10.699,65.766c4.615,2.937 8.496,4.3 11.643,4.09l81.814,-0.944l0.315,-82.129Zm-163.629,-123.98l-30.838,-17.621l100.38,-1.888l48.145,86.849l-32.097,-16.993l-23.285,39.964c-17.412,30.418 -27.691,49.141 -30.838,56.168c-3.147,7.028 -4.301,14.842 -3.461,23.443l-51.292,-87.163c-5.454,-9.441 -8.024,-16.993 -7.709,-22.657c0.314,-5.664 4.038,-14.579 11.171,-26.747l19.824,-33.355Zm83.388,39.019l11.957,6.923l-32.096,-56.641l-65.766,0.63l13.845,7.866l-25.488,43.11c-5.874,9.86 -7.972,18.251 -6.294,25.174c1.888,5.874 3.986,10.384 6.294,13.531l37.446,64.822l60.102,-105.415Zm263.694,-80.87l46.256,79.297c2.098,3.566 3.147,9.23 3.147,16.992c0,33.355 -21.817,50.033 -65.452,50.033l-16.992,0l-55.067,-96.919l88.108,-49.403Zm-75.207,52.865l47.83,84.017l16.048,-0.315c34.404,0 51.606,-13.95 51.606,-41.851c0,-5.664 -0.734,-9.755 -2.202,-12.272l-41.851,-70.172l-71.431,40.593Zm-25.803,203.592l0,35.557l-51.606,-86.219l51.292,-84.962l1.258,36.188l46.257,0.314c35.033,0 56.378,-0.419 64.035,-1.258c7.657,-0.84 15.052,-3.672 22.185,-8.496l-50.033,87.793c-5.454,9.44 -10.751,15.418 -15.891,17.936c-5.139,2.517 -14.632,3.776 -28.477,3.776l-39.02,-0.629Zm-7.552,-91.884l-0.314,-13.846l-33.041,56.326l33.355,56.641l0,-16.048l50.033,0.314c11.538,0.42 19.929,-1.888 25.174,-6.922c3.985,-4.615 6.817,-8.706 8.496,-12.272l37.445,-64.823l-121.148,0.63Zm-199.186,-192.893l46.571,-78.983c2.098,-3.566 6.608,-7.237 13.531,-11.013c28.95,-16.363 54.123,-5.455 75.521,32.726l8.181,14.789l-57.899,95.345l-85.905,-52.864Zm82.758,39.963l50.033,-82.759l-8.182,-13.845c-16.782,-29.999 -37.341,-38.285 -61.675,-24.859c-4.825,2.937 -7.972,5.664 -9.44,8.181l-40.907,70.487l70.171,42.795Zm190.376,-76.78l31.152,-17.307l-50.347,87.164l-99.121,-3.461l31.152,-18.881l-22.342,-40.277c-17.202,-30.628 -28.005,-49.089 -32.411,-55.382c-4.405,-6.294 -10.489,-11.434 -18.251,-15.419l101.01,0.944c10.908,0.209 18.723,1.94 23.443,5.192c4.72,3.251 10.436,10.961 17.149,23.128l18.566,34.299Zm-76.465,51.291l-11.958,7.238l65.137,1.259l33.355,-56.641l-14.16,7.867l-23.915,-44.054c-5.244,-10.28 -11.433,-16.468 -18.565,-18.566c-5.874,-1.259 -10.804,-1.678 -14.79,-1.259l-74.892,-1.258l59.788,105.414Z" style="fill:#090;fill-rule:nonzero;"/></g></svg>